<svg xmlns="http://www.w3.org/2000/svg" viewBox="0 0 773.85 454.97"><defs><style>.cls-1{fill:#fff;}</style></defs><g id="Layer_2" data-name="Layer 2"><g id="Layer_1-2" data-name="Layer 1"><path class="cls-1" d="M210.38,148.67c-21.29,15.4-42.82,29.64-68.59,38.51,2.59,2.06,4.14,3.48,5.85,4.64a184.76,184.76,0,0,1,49.07,48.49,85.59,85.59,0,0,0,5.44,7.14c5.07,5.88,11.44,8.91,19.33,8.64a64.41,64.41,0,0,1,14.8,1c-.82.67-1.53,1.66-2.47,2-14.13,4.8-28.63.28-37.64-11.66-19.95-26.39-43.78-47.9-73.88-62.64-14.05-6.89-25-18.76-34.48-31.29-15-19.85-31.61-37.77-53.34-50.36-5.95-3.44-12.06-6.49-19.3-5.35-5.75.9-8.76,3.47-8.28,9.23a33.32,33.32,0,0,0,4.28,14c7.65,12.86,15.76,25.47,24.13,37.87a80.61,80.61,0,0,1,13.44,36.66c1.77,16.11,7.5,30.73,15.33,44.51,10.67,18.8,22.39,37,33.14,55.76,8.27,14.43,15.57,29.4,23.63,43.95a37.32,37.32,0,0,1,5,21c-2.16,30.2-4.55,60.38-7,90.56-.1,1.28-1.4,2.45-2.15,3.67l-1.61-.63c0-6.59-.4-13.22.08-19.78,1.17-16.1,2-32.27,4.33-48.23,2.86-19.8-.47-37.89-10.38-55.2C96,308.19,84,284.58,70.31,262c-11.74-19.34-20.74-39.87-24.72-61.74-4.48-24.6-16.23-44.77-30.94-63.88-5.83-7.57-11.84-15-13.7-24.59A54.77,54.77,0,0,1,.2,96.93c.52-6.21,9.06-11.41,16.25-9.72A57.07,57.07,0,0,1,31.71,93.1c15.81,9.1,30.05,20,41.18,34.89,13.19,17.66,29.23,32.7,45.71,47.32,6.53,5.79,13.48,7.48,21.13,4.9,11-3.71,22-7.63,32.33-12.87,12.28-6.24,23.84-13.91,35.6-21.13,1.51-.93,2.48-2.83,3.54-4.38,2.48-3.61,4.17-8.13,7.4-10.78,14.53-11.92,30.06-22.66,44-35.15,7.93-7.08,13.68-16.64,20.2-25.24,2.29-3,3.84-6.61,5.91-9.83,2.59-4,1.78-7.33-.63-11.45-4.46-7.6-10.28-10.19-19.06-9.84A38.18,38.18,0,0,1,251,35.35c-10-5.13-10-16.65-.54-22.82a31.2,31.2,0,0,1,10-4.32c12.49-2.83,25-5.38,37.62-7.79C307.79-1.44,314.68,3,320,10.89c6,9,5.92,8.69,14.15,2.38,4.43-3.39,9.42-6.58,14.66-8.21C352.23,4,357,5,360.46,6.6c4.33,1.92,6.39,6.25,3.87,10.88-6,11.06-12.1,22.11-18.8,32.76-3,4.8-5,9.13-5.11,15.08-.12,5.59-2.94,11.14-4.62,16.7-1.38,4.56-2.84,9.09-4.39,14,11.26,2.8,14.23,11,16.52,20.43,3.7,15.15,8.3,30.09,12.49,45.12q2.41,8.65,4.68,17.33a12.42,12.42,0,0,0,6.5,8.26c2.38,1.35,4.9,4.44,5.26,7,1.57,11.53,2.76,23.14,3.38,34.76.69,12.88-4,24.41-12.06,34.09q-21.68,26.08-44.51,51.2c-10.14,11.19-21,21.78-31.88,32.23A50.93,50.93,0,0,1,278.92,355c-4.28,2.08-6.54,5.29-8.3,9.38-8.35,19.38-13.22,39.27-11.06,60.68.95,9.51.16,19.19.16,29.32-3.36,1.43-4-1-4.6-4.47-5.16-28.49-3.11-56.34,7.08-83.51a23.35,23.35,0,0,0,.58-2.54H237.59l-.51-1.61c1.9-.68,3.78-1.41,5.7-2,9.13-3,18.41-5.62,27.39-9,13.49-5.13,24.17-14.26,34.16-24.52,20.09-20.64,40.24-41.21,57.42-64.42,12.19-16.46,15.06-31.94,9.16-49.92-7.89,11.93-16,23.09-27.3,31.25l-1.72-.38c0-4.71.05-9.42,0-14.13-.07-6.14-.37-6.15-6.2-5.33a51.22,51.22,0,0,1-11.41.2c-6.3-.54-12.7-1-18.79-2.5-10.19-2.56-18.51,1.25-26.77,6.23-3.1,1.87-4.22,3.79-2,7.23a93.36,93.36,0,0,1,5.88,11c.66,1.39.61,3.12.89,4.69l-1.26.5a12.45,12.45,0,0,1-2-2.28c-.72-1.3-1.11-2.78-1.74-4.13-5.66-12.23-6-12-19.16-9.4A140.45,140.45,0,0,1,233.62,238c-3.9.06-8.45-1.92-11.65-4.36-7.08-5.41-7-9.13-.45-15,8.06-7.19,16.18-14.35,24.62-21.08,3.44-2.75,5.71-4.93,2.71-9.24-.47-.68-.3-1.81.59-3.65a24.09,24.09,0,0,1,3.75,3.42c1.79,2.47,3.58,2.71,5.78.7,10.93-10.07,25-12.86,38.69-16.15,5.07-1.22,10.67-.19,16.35-.19a7.22,7.22,0,0,0-.7-2.15,104.63,104.63,0,0,1-12.95-34.89c-.73-3.91-2.81-4.82-6.36-4.33-11.43,1.57-21.85,5.42-31,12.65-6,4.75-12.27,9.15-18.47,13.65C233.2,165.65,216.77,161.66,210.38,148.67Zm149.47,30.8c-1.39-3.79-2.27-6.43-3.32-9-5.57-13.76-10.11-27.77-12.07-42.58a50.8,50.8,0,0,0-3.6-12.41c-3.45-8.42-9.06-15.26-18.44-16.56a270.35,270.35,0,0,0-33.76-2.49,39.53,39.53,0,0,0-26.58,9.71c-10.17,8.56-21,16.36-31.34,24.7a37.16,37.16,0,0,0-7.34,8c-1.92,2.85-5.17,6.39-1.75,9.78s6.65-.21,9.21-2.07q15.73-11.43,31-23.47c6.68-5.24,14-8.07,22.54-8q10.72.14,21.46,0c9.12-.1,16,3.69,19.14,12.32,5,13.73,9.27,27.7,14,41.52.61,1.79,1.94,4,3.51,4.67C347.74,175.8,353.19,177.3,359.85,179.47ZM220.42,224c4.54,3.61,8.78,4.13,13.41,2.85,8.38-2.29,16.39-5.2,23.56-10.41s14.88-10.08,22.52-14.79c2.61-1.61,5.74-3.22,8.68-3.33,8.43-.3,17-.52,25.32.48,15.68,1.89,31.28,4.51,46.86,7.16,4.41.75,6.74-1.1,6.86-4.79.09-2.78-.85-7-2.8-8.19a64.73,64.73,0,0,0-17.43-7.89c-9.3-2.45-19-3.34-28.42-5.42-21-4.64-39.48,1.58-56.5,13.16-11.41,7.76-22.23,16.39-33.31,24.63C226.4,219.53,223.65,221.6,220.42,224ZM253,15.47l.18,1.67a27.59,27.59,0,0,0,5.14,1.1c10,.19,19.94.58,29.89.23,9.15-.32,13.3,1.51,15.5,8.33,3.67,11.38,7.24,22.78,11,34.11,1.29,3.85,1,6.76-2.07,9.86-5.41,5.44-8.15,12.26-8.64,20.37,6.8,1,13.17,2.12,19.59,2.73,1.21.12,3.25-1.48,3.81-2.77,2.4-5.47,5-11,6.34-16.76,1.16-4.87,2.12-10.5.78-15.09a193.12,193.12,0,0,0-11.74-30.7c-3.5-7.17-8.55-13.74-13.76-19.85-3.29-3.87-8.54-5-13.82-3.87-11.37,2.5-22.74,5-34.07,7.64A69.15,69.15,0,0,0,253,15.47Zm85.16,38.62c6.28-8.77,11.93-16.31,17.16-24.13a30.66,30.66,0,0,0,4.11-9.56c1.92-7.62-3.79-12.88-11.25-10.44-7.72,2.51-13.62,7.69-18,14.32a10.42,10.42,0,0,0-1.27,8C331.33,39.25,334.63,45.94,338.17,54.09ZM292.28,65.54l-.47-.68L269,93A33.76,33.76,0,0,0,281,91.72a5.78,5.78,0,0,0,3-3.27C286.84,80.86,289.52,73.19,292.28,65.54Z"/><path class="cls-1" d="M512.82,454.34l-4.87.24v-6.07c0-24-.38-47.95,0-71.91a64.32,64.32,0,0,0-13.29-41c-16.68-22-33.94-43.53-51-65.25-5.32-6.78-11.55-13-15.82-20.41-6.13-10.6-5.74-22.62-4.67-34.57,2.36-26.52,4.77-53,6.44-79.62.39-6.08-1.89-12.39-3.31-18.5-4.31-18.68-8.65-37.37-7.59-56.71a47.53,47.53,0,0,1,3.48-15.92c3.79-8.76,11.82-9.18,17.21-1.42,2,2.87,3.78,5.88,5.53,8.9,1.65,2.82,3.12,5.75,5,9.19,2.12-4.88,3.72-9.16,5.81-13.2,2.32-4.49,5.88-7.59,11.23-8.09,4.81-.46,8.35,1.37,9.51,6.1s2.61,9.58,2.14,14.2c-1.64,15.84-4.27,31.59-6.05,47.42-.57,5,.33,10.19,1,15,1.71-10.57,2.58-21.37,5.42-31.63,2.22-8,6.37-15.63,10.71-22.8,1.65-2.74,6-4.74,9.47-5.32,7-1.18,10.36,1.74,10.94,8.81a96.7,96.7,0,0,1,.07,16.93,72.47,72.47,0,0,0,4,31.89c2.18,6.11,3.8,12.41,5.82,18.57a21.14,21.14,0,0,0,2.77,5.81q8.19,11.33,16.68,22.44c3.53,4.63,5.1,4.17,8.54-.33,9.15-12,13.43-25.78,16.68-40.21a63.48,63.48,0,0,1,6.6-16.57c3.85-7,10-9.49,16.7-8.26,3.28.61,5.71,2.17,6.1,5.61.75,6.43,1.85,12.9,1.68,19.33a222.92,222.92,0,0,0,3.78,48.67c.57,2.93,2.44,6.59,4.84,8,15.42,9.17,30.86,18.41,46.92,26.36,7.24,3.58,15.75,3.7,23.23-1.81,15.68-11.53,31.68-22.63,47.16-34.42,3.51-2.67,5.62-7.31,8.08-11.22,7.24-11.53,14-23.38,21.66-34.62,2.89-4.24,7.37-7.73,11.79-10.51,6-3.75,10.32-1.56,10.57,5.44a137.22,137.22,0,0,1-1.34,23.35q-2.75,20-6.71,39.79c-.71,3.55-3,7.12-5.35,9.95-25.6,30.22-51.43,60.25-80.74,87-5.4,4.93-10.23,10.49-15.62,15.44-15.13,13.88-21.93,31.75-25.29,51.4-5.46,32-3.91,64-.59,96.06.27,2.62.55,5.24.83,8-3.25,1.09-5.36,1.2-5.79-2.83-2.83-26.13-6.51-52.26-3.43-78.62,2.14-18.28,7.85-35.7,14.29-52.88.76-2,1.49-4,2.62-7.14-3,1-5.24,1.61-7.38,2.52-9.18,3.91-18.29,8-27.52,11.8-1.44.59-3.38,0-5.09-.09,1.22-1.06,2.27-2.63,3.69-3.11,20.48-6.9,37.27-19.76,53.5-33.34,31.89-26.68,60-57,86.86-88.73,6.79-8,11.4-16.78,12.92-27,2.21-14.95,4.19-29.95,5.79-45,.26-2.45-1.94-5.17-3-7.76-2.52,1.27-5.69,2-7.48,3.9a137.11,137.11,0,0,0-27.28,43.23,18.57,18.57,0,0,1-8.76,10.25,213.52,213.52,0,0,0-49.54,37.59c-4.87,5-11.12,8.58-16.74,12.81l-1-1.23L667,217.77c-4.22-1-6.79-1.87-9.43-2.21-22-2.82-43,2.28-63.8,8.72-11,3.4-22,6.78-32.6,11.06-9.87,4-19.45,1.82-29,0-16.49-3.16-32.75-7.48-49.22-10.66-9-1.73-18.19-2-27.27-3.19-1.43-.19-2.69-1.61-4-2.47,1.51-.66,3-2,4.52-1.9,18.72.74,36.94,4.57,55,9.22,5.48,1.41,11.07,2.42,16.48,4.06,15.49,4.72,30.67,3.37,45.49-2.42,20-7.81,40.92-11.61,61.81-15.72,1.12-.22,2.24-.49,3.33-.82.25-.07.38-.51.84-1.16a17,17,0,0,0-2.39-2c-9.7-5.48-19.52-10.75-29.12-16.4a85.41,85.41,0,0,0-41.14-12c-13-.49-26-3.68-39-5.18-11.4-1.3-22.86-2.1-34.31-2.67a16,16,0,0,0-8.92,2.34c-12.47,8-24.91,16-36.94,24.65-27.2,19.49-20.05,42.75-6.39,59.32s27.65,33.27,41.37,50c5.49,6.69,10.48,13.79,16,20.42,10.15,12.1,14.72,26.3,16.23,41.67,2.71,27.63.38,55.21-1.17,82.8C513.38,453.46,513.12,453.75,512.82,454.34ZM514.18,137c-.75-2.15-1.31-3.71-1.85-5.27-4.51-13.16-8-26.4-5.86-40.58.8-5.39.56-11,.37-16.45-.22-6.11-4.32-9.09-9.76-6.43a17.22,17.22,0,0,0-7.52,8c-3.49,7.87-5.95,16.2-9,24.27-2.83,7.44-2.79,15.05-1.36,22.63a124.87,124.87,0,0,0,14.38,38.1c2.47,4.39,5.4,6.79,10.7,6.07,2.58-.35,5.3.23,8,.51,7.17.76,14.34,1.59,22.48,2.5-4.18-9.88-9.86-17.3-16.44-24.14-3.29-3.42-7-4.8-11.69-3.68-4.27,1-8.6,1.75-12.91,2.6-.18-.58-.37-1.16-.55-1.74C498.92,138.52,507.27,140.33,514.18,137Zm-83.95,65.5c3.42-2.82,5.57-4.95,8-6.56a29,29,0,0,0,13.64-23.74c.53-10.88-.22-21.83-.56-32.74-.14-4.44-1.77-9.12-.81-13.25,2.61-11.31,6.5-22.33,9.41-33.58,3.4-13.17,6.51-26.42,9.23-39.74.48-2.35-1.58-5.21-2.46-7.83-2.52,1.81-5.12,3.53-7.52,5.5-.67.54-.83,1.78-1.1,2.73-1.62,5.76-3.45,11.47-4.75,17.29-6.54,29.5-16.64,58.22-19,88.61C433.2,173.2,431.68,187.2,430.23,202.47Zm121.13-30.13a36.55,36.55,0,0,0,4.74,1.49c9,1.42,18,2.9,27.11,4.06s9.56,1,9.6-8.44c.07-16.09-.41-32.19-.66-48.28,0-2.17.52-4.55-.22-6.43-1-2.72-2.51-6.12-4.79-7.27-2.06-1-6.1-.34-8.11,1.15a21.49,21.49,0,0,0-7,8.83c-5.59,14.44-10.63,29.09-16,44.11,4.69-3.05,8.83-6,13.25-8.53s9.12-4.24,14.2-.46C570.88,155.8,558.5,159.1,551.36,172.34ZM433.12,123.57a31,31,0,0,0,1.84-4.34c3.72-14.62,6.94-29.38,11.16-43.86,3.85-13.2-3.83-21.51-11.34-30-3.06-3.45-6.81-2.78-9,1.27a27.4,27.4,0,0,0-2.82,8.43C418.86,78.87,427.38,100.89,433.12,123.57Zm38.36,1.5a12.66,12.66,0,0,0-.59,2.36c2.63,13,5.23,26,8,38.91a4.25,4.25,0,0,0,2.8,2.72c3.8.48,7.67-4.53,6.25-8.05q-6.06-15-12.45-29.85C474.72,129.3,473.27,127.72,471.48,125.07Z"/><path class="cls-1" d="M535.47,227.41c19.23-6.38,39-11.45,54.42-27C589.57,211.7,547.9,232.23,535.47,227.41Z"/></g></g></svg>