<svg xmlns="http://www.w3.org/2000/svg" viewBox="0 0 808.45 982.92"><g id="Layer_2" data-name="Layer 2"><g id="Layer_1-2" data-name="Layer 1"><path d="M300.23,795.61c10.49.86,20.22,2,30,2.41,45.1,2,88.32-6.17,129.89-23.85,27.65-11.77,43.13-32.22,46.79-61.92,4.38-35.62,5-71.33,3.35-107.14-.18-3.73-1.58-5.39-5.1-5.94-20.52-3.25-40.93-7.54-61.56-9.59-22-2.19-44.15-2.26-66.24-3.31a40,40,0,0,1-5-.87L372,584c2.76-1.23,5.41-3,8.3-3.59,19.39-3.76,38.72-8.24,58.29-10.63a451.82,451.82,0,0,1,89.69-2.33c32.83,2.53,64.37,10,93.42,26.11C630,598.11,638,603.15,645,611.23a28.59,28.59,0,0,1-4.43.3c-19.51-2.22-39-4.73-58.52-6.64-11.56-1.13-23.22-1.34-34.84-1.91-5.21-.25-7.19,2.23-7.41,7.51-1.12,25.93-2.24,51.86-4,77.75-1.11,16.24-2.28,32.62-5.4,48.55-4,20.39-17.15,35.32-33.64,47.27-20.23,14.66-43.4,22.4-67.61,26.82-37.9,6.94-76.12,10.57-114.71,8.28-7.45-.44-14.84-1.65-23.18-2.62-17.62,53.5-23.85,109.19-24.71,165.73l-1.72.65c-1.32-1.93-3.35-3.7-3.86-5.83-2.47-10.32-4.82-20.7-6.69-31.15-4.15-23.12.66-45.76,4.58-68.35,3.58-20.63,8.08-41.11,12.16-61.66.19-1,.22-2,.34-3.13-11.77-4.59-23.59-8.95-35.21-13.79-11.41-4.76-22.66-9.93-32.42-18l72.59,12.76c16.81-46.18,31.18-92.59,55.88-136-11.4-1-22.39-2.6-33.42-2.9-41.35-1.09-81.2,5.6-118.44,24.48-13.09,6.64-25.5,14.38-36.22,24.56a5.37,5.37,0,0,1-1.53,1.27c-2.19.85-4.44,1.59-6.67,2.37-.65-2.28-2.27-4.8-1.79-6.81,2.7-11.1,5.17-22.35,9.1-33,9.49-25.85,22.81-49.79,37.9-72.83,18.63-28.45,44.64-47.81,75.15-61.26,19.74-8.71,40.06-16.2,60.44-23.3,31.57-11,50.27-34.06,62.3-63.86.54-1.35.82-2.81,1.68-5.8-11.55,10.68-23.76,15.86-38.23,15s-26.27-6.88-35.1-18.31c-13.67-17.69-12.54-42,2.58-58.7,14.7-16.24,42-21.84,65.59-6.29-4.27-7.56-8-15.46-12.92-22.61-15.72-23-35.94-40.33-64.12-45.63-28.55-5.37-56.08-1.22-81.72,12.52-20.94,11.22-30.74,30.43-35.54,52.84-4.92,23-1.44,45.37,4.57,67.51,3.12,11.52,7.38,22.74,11.12,34.09a13.19,13.19,0,0,1,.8,3.8c-24.12-23.48-40.93-50.81-42.77-85.22-1.51-28.35,6.14-54.28,23.87-76.89a14,14,0,0,0,2.63-4.69c5.86-21.62,9.95-43.51,7.66-66a77.84,77.84,0,0,0-4.5-19.34c-6.56-17.44-20.1-25.67-38.23-25.94-19.29-.3-38,3.52-56.22,9.88-9.87,3.45-16.91,10.07-21.83,19.38-2.37,4.48-1.25,6.56,2.47,9.26,4.39,3.19,8.83,6.74,12.09,11,12.68,16.59,9.24,41.34-7.23,55.22-17.82,15-47.55,13.66-63.85-3C-5,281.45-3.76,254.78,14.63,239.33a72.09,72.09,0,0,1,9.42-6.52c4-2.42,6-5.64,6.54-10.44C36.29,174.5,55.68,134,95.5,105.08c21.67-15.77,46.18-24.84,72.59-28.66,31.26-4.53,62.38-3.86,93.09,4.2,22.84,6,42.45,17.18,56.81,36.47a7.34,7.34,0,0,0,1.24,1.13c2.93-9.61,5.47-19.18,8.77-28.49,5.65-16,14.93-29.62,27-41.46a9.59,9.59,0,0,0,2.66-5.48C359.6,21.72,371.45,8.32,390.9,2.3c20-6.2,37,.5,50.67,15.88,6.14,6.9,7.88,15.57,9.32,24.34.3,1.84.83,4.08,2.08,5.26,19.87,18.9,30.23,42.59,35.25,69a5.3,5.3,0,0,0,.57,1.26c.41,0,.86,0,1-.13,16.53-22.4,39.55-34.15,66.15-39.36,40-7.84,80-7.66,118.62,6.5,55.21,20.22,87.38,60.78,100.17,117.47a121.3,121.3,0,0,1,2.9,17.71c.45,6.23,2.83,10.43,8.4,13.57,11,6.2,19.16,15,21.67,27.85,4.76,24.28-13,47.67-37.68,49.9-16.86,1.52-31.9-2.3-42.9-16.06-15.41-19.25-11.49-44.95,8.67-59.08,7.22-5.06,7.17-5,2.85-12.89-3.66-6.64-8.71-11.89-15.7-14.78-21.83-9-44.67-13.62-68.2-11.67-24.45,2-39.77,17.24-44.64,42-3.93,20-.8,39.43,5.13,58.53,1,3.16,3.52,6,5.79,8.59,11.78,13.45,18.14,29.26,20.75,46.75a3.92,3.92,0,0,1,0,1.46c-5.85-7.44-11.39-16.22-18.6-23.31-16-15.72-36.4-22-58.21-24.48-34.18-3.85-78.53,6.24-108.58,17.55q3.3,19.44,6.62,39c48.64-13.43,90,.26,126.8,31.9-.14.47-.27.94-.4,1.41-5.56-1.9-11.1-3.87-16.69-5.68-23.38-7.56-47.11-13.19-71.92-12.17a85.07,85.07,0,0,0-31.45,7c-3.25,1.44-4.78,3.25-4.94,7C463.53,412.37,462.56,432,457,451c-4.48,15.16-9.47,30.24-18.43,43.44-14.18,20.9-35.07,31.44-59,36.82-2.41.54-4.88.84-8.27,1.41,1-1.06,1.28-1.57,1.71-1.78,23.64-11.41,38.77-30.62,48.14-54.38,17-43.16,17.95-86.86,2-130.61-2.55-7-6.32-13.54-9.45-20.32a68.94,68.94,0,0,1-3.18-7.85c-3.55-11.23,0-18.78,10.94-23.1,34.18-13.48,69.38-22,106.39-21.51,20,.26,39.4,3.33,58.11,10.51.91.35,1.85.63,3.14,1.07-1.22-6.63-2.76-12.88-3.47-19.22-2.45-21.64.47-42.26,13.5-60.39,13.23-18.41,32.3-26.64,54.07-29.35,32.49-4,62.37,3.57,89.91,21a19.12,19.12,0,0,0,1.88.8,157,157,0,0,0-24.64-44.71c-23.51-29.53-54.55-45.58-91.67-50-20.49-2.46-41.13-4-61.67-.61-36.22,6-60.65,26.91-74.94,60.29-.13.3-.23.63-.37.92-7.75,15.34-9.47,31-2.32,47a27.1,27.1,0,0,1,.82,3.12c-6.15-5-10.62-9.88-12.2-16.46-3.24-13.55-6-27.22-8.88-40.86-5.45-25.64-13.21-50.47-25.91-73.55-.55-1-1.27-1.9-2.23-3.32-10.37,9.9-22.6,14.34-36.68,14.3s-26.13-4.23-36.81-14.6c-2.54,4.76-5,9-7.14,13.42-12.7,25.66-18.86,53.07-22.33,81.33-1.12,9.12-4,18.16-7.28,26.81-1.78,4.72-5.95,8.55-9,12.78l-1.39-.78,3.23-11.54c2.34-8.33,2.67-16.44-.3-24.92-7.51-21.43-18-40.78-36.27-55A95,95,0,0,0,234,101.21c-27-1.78-53.94-1-80.09,7-40.61,12.42-68.15,39.46-85.52,77.6-1.44,3.17-2.69,6.43-4,9.67-.17.41-.1.92-.07.53,10.43-4.6,20.86-10.08,31.87-13.89,20.37-7,41.32-9.83,62.87-5.61,32.69,6.39,51.14,27.5,52.7,60.72.8,16.85-2.55,33.06-7.54,49-.49,1.54-.94,3.09-1.14,3.75,11.49-4.26,22.93-9.92,35-12.74,56.52-13.16,103.9,4.22,142.18,46.35,16.38,18,23.08,41.41,26.73,65.2,8.61,56.09-17.29,105.41-69.49,131.52-15,7.48-30.91,13-46.54,19-43.28,16.82-73,47.49-92,89.27-.74,1.63-1.26,3.36-2.1,5.64a683.91,683.91,0,0,1,197.82,6.86c-28.19,21.25-43.38,51.47-59.21,80.93-11.87,22.08-22,45.11-32.84,67.72C301.86,791.29,301.33,792.87,300.23,795.61Z"/></g></g></svg>