<svg xmlns="http://www.w3.org/2000/svg" viewBox="0 0 927.08 318.07"><defs><style>.cls-1{fill:#fff;}</style></defs><g id="Layer_2" data-name="Layer 2"><g id="Layer_1-2" data-name="Layer 1"><path class="cls-1" d="M.27,87.38V0H927.08V87.51c-22.52,1-41.28,9.73-55.4,27.41-10.46,13.08-15.35,28.19-15.42,44.9-.13,30,23.56,68.63,70.78,71v86.84c-1.89.13-4,.4-6,.4q-449.07,0-898.13,0c-6.33,0-12.65-.11-19,0-2.68.05-3.91-.63-3.9-3.6.09-27.31.06-54.61.08-81.92a14,14,0,0,1,.42-2c24.76-1.32,44.88-11.7,58.92-32.69a68.2,68.2,0,0,0,11.45-44.6C68.26,121.55,43.62,89.74.27,87.38ZM690.55,16.66H236.44v18H220.07v-18H16.67V22c0,14.81.2,29.64-.08,44.45-.09,4.57,1.07,6.44,5.79,7.72C60.62,84.6,87,118.07,87.84,156.47c.87,41.67-26.39,77.59-66.83,87.72-3.54.89-4.41,2.37-4.38,5.72.16,15.48.07,31,.11,46.45,0,1.58.24,3.17.37,4.74H220.18V283.27H236.5v17.86H690.8c0-5.1-.17-9.9.07-14.69.15-3.12-.79-4.67-3.89-5.8-11.75-4.27-18-13.07-18.35-25.38q-.64-25.47,0-50.95c.3-12.34,6.7-21,18.4-25.32,3.12-1.14,3.92-2.74,3.84-5.83-.2-7.32-.4-14.67,0-22,.41-6.79-.12-12-8.35-13.85-3.38-.76-6.55-4-9.05-6.76a25.43,25.43,0,0,1-6.84-20h16.47a38.77,38.77,0,0,0,1.13,3.94,13.85,13.85,0,0,0,12.09,9.1c5.6.61,10.88-.47,14-5.65,3.43-5.7,3.27-11.84.17-17.66-2.76-5.19-7.44-7.36-13.24-7.31-4.58,0-9.17,0-14.55,0l22-40.91H669.87V35h20.68ZM708.41,78.6c1.27.57,1.86.86,2.47,1.1,13.44,5.29,19.7,14.75,19.68,29.75,0,15.33-6.23,24.72-20.1,29.82-2.56.95-3.18,2.25-3.15,4.72.1,9.82.17,19.65-.06,29.47-.08,3.22,1,4.52,4,5.68,12,4.74,18.14,14,18.17,27.05,0,15.14-.19,30.3.05,45.44.23,14.3-5.81,24.18-19.22,29.5-1.15.46-2.73,1.8-2.78,2.8-.27,5.61-.13,11.24-.13,17.17h203.4v-5.32c0-15-.17-30,.11-44.94.08-4.31-1.31-6-5.45-7-46.1-11.32-75.22-59.7-63.19-105.65,8.77-33.5,30.28-55,63.72-64.29,3.7-1,5-2.48,4.9-6.38-.24-15.31-.09-30.63-.12-45.95,0-1.58-.19-3.17-.31-4.93H707.75V35.05h24Zm3.3,151.28c0-8.48.09-17,0-25.43-.1-6.46-4.21-10.87-10.62-11.74-8.62-1.19-15,4-15.15,13-.22,15.79-.08,31.58-.06,47.37a17.7,17.7,0,0,0,.43,3.46c1.36,6.69,6.9,10.78,13.8,10.24a12.1,12.1,0,0,0,11.61-12.47C711.78,246.17,711.71,238,711.71,229.88Z"/><path class="cls-1" d="M220.42,141.49h16.14v8.73c0,7.47-.08,14.94.08,22.41.06,3-.9,4.17-4,4-3.94-.23-7.91-.05-12.22-.05Z"/><path class="cls-1" d="M236.28,71.11v34.36H220.33V71.11Z"/><path class="cls-1" d="M220.4,212.47h16.12c0,10.85.07,21.44-.12,32,0,.86-1.75,2.36-2.75,2.43-4.29.27-8.6.11-13.25.11Z"/></g></g></svg>