<svg xmlns="http://www.w3.org/2000/svg" viewBox="0 0 260.75 202"><defs><style>.cls-1{fill:#fff;}</style></defs><g id="Layer_2" data-name="Layer 2"><g id="Layer_1-2" data-name="Layer 1"><path class="cls-1" d="M0,132.5V0H140.25c-.24.89-1.17.6-1.71,1-.22.17-.62.19-.61.54s.32.35.54.47l.22.11c4.55,2.32,5.46,5.77,3.35,10.31a72.14,72.14,0,0,1-4,7.08,12.63,12.63,0,0,0-1.5,3.69,2.87,2.87,0,0,0,1.33,3.33,4.46,4.46,0,0,0,2.56.89c3.46-.09,6.91.2,10.36.26a11,11,0,0,0,4.39-.82c.26-.1.64-.17.64-.51s-.4-.37-.66-.45a45.83,45.83,0,0,0-6.35-1.3A17.24,17.24,0,0,1,143.07,23a3,3,0,0,1-1.63-3.64,13.74,13.74,0,0,1,2.65-4.77c.49-.67,1.06-1.28,1.55-2a8.19,8.19,0,0,0,1.05-8.49A7.37,7.37,0,0,0,142.28.35a.25.25,0,0,1,0-.35h118.5V121.75a.24.24,0,0,1-.35,0,13.5,13.5,0,0,1-.45-3.57,98.06,98.06,0,0,0-8.66-34.59,154.13,154.13,0,0,0-19-30.62c-4.84-6.26-10-12.27-15.15-18.27a81.27,81.27,0,0,0-18-15.37c-14.09-9-29.55-14.31-46-16.75-1.41-.2-1.5-.08-1,1.23s1.3,2.61,1.84,4a5.58,5.58,0,0,1-.72,5.67,14.44,14.44,0,0,1-3,3.29,5.82,5.82,0,0,0-.74.67c-1,1.06-.89,1.78.57,2.21a18.57,18.57,0,0,0,4.7.59A63.47,63.47,0,0,1,171,22.41a50,50,0,0,1,18.17,10c7.4,6.32,12.89,14.1,17.42,22.63a149.09,149.09,0,0,1,11.91,31.48,276.89,276.89,0,0,1,6.19,32,66.72,66.72,0,0,1,.84,12.06,29.93,29.93,0,0,1-1.68,9.93c-1.62,4.11-4.23,7.41-8.38,9.13a9.4,9.4,0,0,1-12.11-5.19c-1.18-3.24-2.53-6.43-3.64-9.71-2.29-6.74-4.44-13.54-7.36-20.05a46.68,46.68,0,0,0-10.13-15,29.47,29.47,0,0,0-12.77-7.34c-3.42-.92-6.57.1-9.39,2.2a24.48,24.48,0,0,0-6.68,8.47c-3.88,7.23-7.47,14.61-11.42,21.8a16.38,16.38,0,0,0-2.09,7.53c-.06,3,.79,5,3.86,6.14,1.29.48,2.62.85,3.91,1.34,2.32.87,3.9,2.3,4,5a19.59,19.59,0,0,0,1,4.77c1.23,4.19,4.07,6.54,8.28,7.39,1.55.31,3.12.5,4.69.75a10.25,10.25,0,0,1,2,.55,3.85,3.85,0,0,1,2.66,4c0,2.54-.37,5.06-.6,7.58-.79,8.31-2.43,16.48-3.74,24.7-.73,4.62.75,6.42,5.41,6.44,7.92,0,15.84.18,23.75-.05,4.41-.13,8.83-.27,13.23-.13,5.24.16,10.48.56,15.72.41a72.42,72.42,0,0,0,12.53-1.26,4.28,4.28,0,0,0,2.65-1.68c9.18-11.7,14.84-25,18.11-39.42a133.83,133.83,0,0,0,2.79-19.51,1.89,1.89,0,0,1,.23-1,.24.24,0,0,1,.35-.05V202H39c0-.64.56-.52.93-.56a176.16,176.16,0,0,1,25.05-1c3.79.18,7.58,0,11.36.24,3.53.22,7.06.45,10.59.42a30.4,30.4,0,0,0,8.16-.94l.25-.06c3.08-.84,3.55-1.76,3.26-4.92-.68-7.44-3-14.51-4.7-21.71a60.5,60.5,0,0,1-1.84-13.58,4.85,4.85,0,0,1,3.44-4.44c1.82-.59,3.63-.2,5.44,0a18,18,0,0,0,3.35.29,6.27,6.27,0,0,0,5.57-4,25.13,25.13,0,0,0,2-7.7c.42-3.35.88-3.9,4.24-4.46,2-.32,3.91-.82,5.85-1.26,3.46-.79,5.16-3.1,5.2-6.67a13.71,13.71,0,0,0-.4-3.84c-1.47-5.38-2.67-10.84-4.59-16.09A40.94,40.94,0,0,0,113.31,97c-7-7.14-15.47-8.85-24.55-3.81a31.37,31.37,0,0,0-9.58,8.29,90.79,90.79,0,0,0-9.83,14.88,127.85,127.85,0,0,0-4.93,12.28,72.51,72.51,0,0,1-5.64,12.24,14.33,14.33,0,0,1-4.08,4.51,8,8,0,0,1-6.38,1.48c-1-.21-2-.45-3-.73a6.51,6.51,0,0,1-4.5-4.32,30.34,30.34,0,0,1-1.23-6.61,65.69,65.69,0,0,1-.8-8.94,53.33,53.33,0,0,1,.78-9.07A104.41,104.41,0,0,1,47,93.27a195.32,195.32,0,0,1,11.87-23A204.86,204.86,0,0,1,79.79,41.09a72.37,72.37,0,0,1,22.28-17.25,48.85,48.85,0,0,1,16.25-4.67,11.59,11.59,0,0,0,2.8-.62,2.3,2.3,0,0,0,1.65-2.82,17,17,0,0,0-1.1-4A2.85,2.85,0,0,1,121.85,9a9.35,9.35,0,0,0,1-2.15,1.66,1.66,0,0,0-1.4-2.4,17.37,17.37,0,0,0-4.61-.11,71.15,71.15,0,0,0-24,6.07C81.49,15.37,71.31,22.19,61.69,29.91A186.47,186.47,0,0,0,42.31,48.12,131.4,131.4,0,0,0,25.67,69.93c-2.38,3.95-5.25,7.61-7.67,11.55A123.4,123.4,0,0,0,3.27,115.12a88.49,88.49,0,0,0-2.7,16.5,1.61,1.61,0,0,1-.22.83A.24.24,0,0,1,0,132.5Z"/><path class="cls-1" d="M.25,132.5a13,13,0,0,0,0-1.87c-.09-.6.32-1.07.29-1.65s-.24-1.15.22-1.66c.06-.06,0-.24,0-.36-.17-.79.29-1.51.24-2.27s.43-1.4.26-2.15c.58-1.71.78-3.5,1.19-5.25s1-3.75,1.48-5.64,1.26-3.9,1.86-5.86c.36-1.17.83-2.32,1.29-3.46.58-1.43,1.13-2.87,1.78-4.27.9-2,1.75-4,2.79-5.84.49-.88.87-1.82,1.37-2.68.65-1.11,1.19-2.27,1.88-3.35.41-.65.73-1.37,1.12-2,1.31-2.3,2.77-4.52,4.21-6.76,1-1.62,2.19-3.17,3.25-4.78a7.53,7.53,0,0,0,1.28-2c.89-.63,1-1.83,1.75-2.52a31.26,31.26,0,0,1,2.94-4.66Q31.12,61,33,58.58c1.08-1.35,2.15-2.71,3.26-4,1-1.15,2-2.27,2.92-3.42,4.07-4.92,8.81-9.2,13.3-13.71,1.46-1.47,3.08-2.8,4.64-4.17,1.06-.94,2.14-1.86,3.25-2.73,2.1-1.64,4.13-3.38,6.32-4.91,1.49-1,3-2.09,4.43-3.19s2.9-2.07,4.39-3q2.55-1.63,5.18-3.15c1.81-1,3.7-2,5.5-3s3.54-1.72,5.31-2.57,3.55-1.49,5.35-2.18,3.63-1.33,5.47-1.87A17,17,0,0,1,107,5.5,5,5,0,0,1,109,5a4.44,4.44,0,0,1,2-.29c.7-.48,1.53,0,2.24-.34s1.56,0,2.3-.17A21.72,21.72,0,0,1,120.78,4,2.59,2.59,0,0,1,123,4.9a2.92,2.92,0,0,1,.25,1.46c0,1.09-.76,1.86-1.09,2.81-.15.43-.6.79-.65,1.21s.31.77.46,1.17.29,1,.51,1.53.25,1.05.44,1.57a11.25,11.25,0,0,1,.28,1.51,2,2,0,0,1-.46,1.66c-.36.4-.64.89-1.35,1-.54.06-1.07.42-1.67.46s-1.08.37-1.65.23-.78.36-1.27.28a2.37,2.37,0,0,0-1.29.19,6.61,6.61,0,0,1-1.63.24c-.92.1-1.76.44-2.66.59a24.74,24.74,0,0,0-3.22,1A33.74,33.74,0,0,0,104.68,23a43,43,0,0,0-4.57,2.25c-1.08.6-2.2,1.15-3.26,1.79-.87.52-1.7,1.13-2.54,1.71-1.07.75-2.14,1.48-3.19,2.26-1.57,1.17-3,2.5-4.62,3.63a7.3,7.3,0,0,0-.89.87c-1.38,1.39-2.81,2.73-4.14,4.17A36.11,36.11,0,0,0,78.61,43c-.42.58-1,1.07-1.41,1.66-1.17,1.52-2.34,3-3.56,4.51s-2.25,3.11-3.47,4.6c-.64.78-1.21,1.65-1.79,2.49-1.07,1.55-2.15,3.11-3.18,4.69Q63.06,64.23,61,67.55c-1.14,1.82-2.16,3.71-3.36,5.49-.41.61-.73,1.29-1.08,1.93-.46.85-1,1.69-1.42,2.53-2.14,3.85-4,7.85-6,11.77-.7,1.37-1.25,2.82-1.87,4.23-.73,1.65-1.34,3.36-2,5-.45,1.07-.78,2.18-1.21,3.25s-.75,2.11-1.08,3.18c-.41,1.29-.82,2.58-1.17,3.89s-.75,2.86-1,4.32a16.29,16.29,0,0,1-.68,2.71c-.19.49.09,1.13-.28,1.64a8.05,8.05,0,0,1-.3,2.76c-.21,1.52-.14,3-.21,4.53,0,.5-.38,1-.24,1.52a28.5,28.5,0,0,1,.29,4,13.21,13.21,0,0,0,.25,2.13c.24.74,0,1.48.24,2.15s.08,1.47.25,2.15a11.33,11.33,0,0,0,.27,1.88c.28.57.13,1.16.38,1.73s.35,1.19.6,1.75a5.48,5.48,0,0,0,2.54,3,5.2,5.2,0,0,0,2.66.82c.81.55,1.81.41,2.7.71a3.89,3.89,0,0,0,1.89-.16,11.7,11.7,0,0,0,2.32-.77,8.56,8.56,0,0,0,2.23-1.55,20.3,20.3,0,0,0,4.62-6.7c.73-1.48,1.47-3,2.09-4.51s1.36-3.27,1.94-5,1.25-3.23,1.87-4.84c.25-.65.46-1.32.72-2,.45-1.1.93-2.19,1.39-3.3s1.07-2.39,1.69-3.55a24.08,24.08,0,0,1,2.82-4.34,22,22,0,0,0,1.49-2.37c1.12-1.66,2.19-3.37,3.41-4.95.65-.83,1.39-1.61,2.06-2.42a30.7,30.7,0,0,1,2.53-2.69c1.12-1.07,2.39-2,3.62-3a26.06,26.06,0,0,1,4.19-2.6,21.56,21.56,0,0,1,4.1-1.54A13.77,13.77,0,0,1,96.94,90a17.88,17.88,0,0,1,3.87,0,19.19,19.19,0,0,1,5,1.32,25,25,0,0,1,4,2.13c.43.29.69.81,1.25.9.67.84,1.66,1.33,2.37,2.12a41.61,41.61,0,0,1,5.22,7c.78,1.38,1.57,2.76,2.22,4.21s1.4,3.16,2,4.81c.34,1,.7,2,1,2.94a15,15,0,0,1,.38,1.71c.33,1.36.73,2.7,1.1,4.05s.82,2.83,1.22,4.25c.23.86.47,1.73.66,2.58a9.81,9.81,0,0,1,.31,1.89c0,.62,0,1.25,0,1.87a7.73,7.73,0,0,1-1.54,4.87,4.07,4.07,0,0,1-1.23.94,7,7,0,0,1-2.64,1.16,16.79,16.79,0,0,1-2,.3,15.58,15.58,0,0,0-2,.55c-.65.15-1.3.3-1.95.39a6.48,6.48,0,0,0-2.57.76,1.73,1.73,0,0,0-1.08,1.59,15.65,15.65,0,0,1-.27,2.14,3.93,3.93,0,0,1-.45,1.92,10.13,10.13,0,0,1-.77,3.44,10.05,10.05,0,0,1-2.69,4.75A4.59,4.59,0,0,1,105,156c-.43,0-.69.34-1.15.29a5.86,5.86,0,0,0-1.52-.3c-.5,0-1.07.21-1.52-.23-1.39,0-2.75-.47-4.14-.24a5,5,0,0,0-2.38.86,4.76,4.76,0,0,0-1.7,2.16,9.45,9.45,0,0,0-.1,1.64,13.22,13.22,0,0,1,0,2,17.94,17.94,0,0,0,.31,4,36.93,36.93,0,0,0,.73,4.31c.37,1.55.77,3.1,1.16,4.64s.75,3,1.08,4.43c.23,1.06.6,2.09.83,3.16.28,1.29.64,2.57.94,3.86a11.22,11.22,0,0,0,.71,3.08c-.15.78.35,1.48.27,2.27-.06.55.31,1,.25,1.65a2.07,2.07,0,0,0,.23,1.64c0,1.08,0,2.17,0,3.25a.4.4,0,0,1-.25.39,14.17,14.17,0,0,1-3.56,1.68c-1.14.31-2.34.3-3.45.71h-.12a9.45,9.45,0,0,0-2.61.05,11,11,0,0,1-2.54.19,10.43,10.43,0,0,1-2.62,0c-2-.4-4,0-6-.26a48.84,48.84,0,0,0-5.4-.21,45.82,45.82,0,0,1-5.5-.05,63.67,63.67,0,0,0-6.9-.19c-2.33,0-4.67,0-7,0a44.92,44.92,0,0,1-4.64.24c-.94.43-2,.06-2.89.28s-2,.05-3,.26a17.73,17.73,0,0,1-3.16.21c-.17,0-.34,0-.32.25h-.5c-.58-.27-1.2-.06-1.8-.13H34.84c-.53.06-1.08-.13-1.59.13h-.5c-1.16-.3-2.37-.21-3.54-.52-4-1.07-6.89-3.62-9.4-6.7A60.27,60.27,0,0,1,12,181.43q-4.41-9.74-8-19.79A60.34,60.34,0,0,1,.23,144.12c-.05-1.08-.1-2.16-.1-3.24v-7C.18,133.4,0,132.93.25,132.5Z"/><path class="cls-1" d="M260.5,138.25a17,17,0,0,0,0,1.75c.07.59-.37,1.05-.28,1.65a3.93,3.93,0,0,1,0,1.74c-.24.72-.08,1.46-.25,2.14s-.09,1.38-.25,2-.08,1.31-.26,1.9-.11,1.12-.24,1.65-.11,1.05-.25,1.52c-.33,1.09-.39,2.23-.67,3.33-.16.63-.25,1.33-.39,2s-.21,1.32-.41,1.95c-.55,1.7-.87,3.46-1.39,5.17-.38,1.26-.77,2.52-1.12,3.79a22.22,22.22,0,0,1-1.05,3.07c-.42,1-.69,2-1.09,2.92-.73,1.74-1.5,3.46-2.22,5.21a55.43,55.43,0,0,1-2.53,5.2,80.78,80.78,0,0,1-4.64,7.71l-2.53,3.68c-.61.87-1.36,1.68-2,2.57a2.88,2.88,0,0,1-2.09,1,5.46,5.46,0,0,1-2,.3c-.49-.1-.79.37-1.28.28a1.42,1.42,0,0,0-1.28.22c-.09.08-.32,0-.49,0a48.8,48.8,0,0,1-5.27.25,16.32,16.32,0,0,1-4.52.24c-1.5,0-3,0-4.5,0-.86,0-1.65-.38-2.53-.28a22.87,22.87,0,0,1-2.62,0,12.72,12.72,0,0,1-2.62,0c-2.09-.44-4.18-.14-6.27-.21a43.43,43.43,0,0,0-6.25,0c-2.89.32-5.77.13-8.65.19s-5.92,0-8.87,0-5.84.05-8.75,0a7.71,7.71,0,0,1-3.75-.89,3,3,0,0,1-1.49-2,9.77,9.77,0,0,1-.19-3.27,16.81,16.81,0,0,0,.22-2c.56-.53-.07-1.38.5-1.91a4.92,4.92,0,0,1,.26-2,34.15,34.15,0,0,1,.69-3.46c.2-.55-.08-1.21.3-1.76,0-1.37.59-2.66.5-4,.35-.55.11-1.21.28-1.76s.05-1.24.26-1.77,0-1.39.29-2-.06-1.35.2-1.92c.44-1-.09-2,.47-2.93,0,0,0-.08,0-.12a32.54,32.54,0,0,1,.31-4.4c0-1,.22-2.09.18-3.14a3.2,3.2,0,0,0-1.89-3.05,11.68,11.68,0,0,0-2.93-.81c-1.31-.23-2.64-.39-3.95-.65a14.83,14.83,0,0,1-4.08-1.35,6.56,6.56,0,0,1-2.68-2.3,16.62,16.62,0,0,1-1.45-2.16,17.47,17.47,0,0,1-1.23-4c-.06-.36-.36-.62-.29-1s0-.67,0-1-.37-.69-.28-1.15a1.76,1.76,0,0,0-.08-1.08,4,4,0,0,0-2.26-2.53,22,22,0,0,0-3.77-1.48,12.5,12.5,0,0,1-3.39-1.49,5,5,0,0,1-2-3.49c0-.69-.43-1.32-.26-2a3.88,3.88,0,0,0,.25-1.65,4.57,4.57,0,0,1,.33-1.75c.1-.5.32-1,.48-1.54a30.35,30.35,0,0,1,2.73-5.86c1.42-2.5,2.86-5,4.16-7.54s2.48-5.14,3.82-7.66c1-1.88,2-3.78,3.14-5.59.75-1.16,1.53-2.29,2.39-3.38.58-.76,1.26-1.39,1.88-2.09.11-.12.22-.3.36-.34.64-.17.89-.81,1.42-1.1.71-.39,1.39-.87,2.13-1.19a8,8,0,0,1,1.53-.5,5.43,5.43,0,0,1,2-.32,1.19,1.19,0,0,0,1-.22c.14-.12.5-.07.73,0a36,36,0,0,1,4,1.21c1.47.59,2.85,1.35,4.28,2a21.23,21.23,0,0,1,3.17,2A29.34,29.34,0,0,1,184.1,101a45.09,45.09,0,0,1,3.91,5,50.36,50.36,0,0,1,4.37,7.82c1,2.1,1.89,4.21,2.65,6.4.5,1.45,1.13,2.87,1.61,4.33,1.1,3.33,2.33,6.62,3.39,10,.63,2,1.4,3.92,2.15,5.86.62,1.62,1.29,3.22,1.93,4.83a6,6,0,0,0,2.4,2.79c.32.21.63.46,1,.67a6.34,6.34,0,0,0,3.18,1.08c.49,0,.88.34,1.4.28,2.48-.27,4.84-.8,6.59-2.79.38-.43.9-.67,1.31-1.06a14.66,14.66,0,0,0,2.05-2.65,15.24,15.24,0,0,0,2.27-5.56c.17-.85.33-1.7.52-2.54s0-1.79.24-2.65c.41-1.79.07-3.6.24-5.4.06-.75-.35-1.4-.28-2.15a6.21,6.21,0,0,0,0-2.11,14.34,14.34,0,0,1-.23-2,18.85,18.85,0,0,1-.25-2.15,17,17,0,0,0-.28-2.13,5.16,5.16,0,0,0-.25-1.63c-.3-.55,0-1.07-.21-1.55-.42-1.16-.3-2.41-.71-3.57a7.46,7.46,0,0,1-.22-1.65c-.08-.59-.43-1.13-.32-1.76s-.41-1.15-.24-1.77c-.5-1.58-.45-3.27-1-4.85a5.93,5.93,0,0,1-.22-1.39c0-.5-.32-.9-.31-1.39a5.45,5.45,0,0,0-.28-1.39c-.36-1.55-.68-3.11-1.11-4.65-.24-.86-.36-1.76-.6-2.63-.29-1.09-.58-2.18-.84-3.28-.41-1.7-1.07-3.32-1.43-5-.14-.71-.54-1.36-.72-2.07a31.81,31.81,0,0,0-1.28-4.09c-.76-1.86-1.3-3.79-2.11-5.63-.63-1.44-1.15-2.94-1.74-4.41-.65-1.64-1.48-3.21-2.28-4.8-.31-.62-.46-1.3-.84-1.91-.91-1.44-1.68-3-2.46-4.48-1.49-2.85-3.35-5.44-5.06-8.14-.55-.87-1.25-1.65-1.88-2.48-.91-1.19-2-2.27-2.89-3.44a45.38,45.38,0,0,0-4.83-5,46.44,46.44,0,0,0-6.61-5.14,40.79,40.79,0,0,0-3.61-2.14c-1.11-.54-2.21-1.08-3.33-1.61a42.09,42.09,0,0,0-5.49-2.13,33,33,0,0,0-4.44-1.07,11.79,11.79,0,0,1-1.63-.27,8.28,8.28,0,0,0-1.54-.22,7.47,7.47,0,0,0-1.65-.25,2.41,2.41,0,0,1-1.64-.24s-.08,0-.13,0c-2,.11-3.91-.43-5.89-.25-1.15.1-2.25-.44-3.4-.25-.61-.33-1.32-.37-2-.7-.45-.22-.51-.57-.74-.86a.53.53,0,0,1,.11-.76c.7-.57,1.23-1.28,2-1.8a9.69,9.69,0,0,0,2-2.14,25.25,25.25,0,0,0,1.42-2.17c.27-.44,0-.9.23-1.28s.07-.71,0-1.11c-.23-1.83-1.22-3.34-2-4.93a12.4,12.4,0,0,0-.83-1.91c-.22-.3,0-.52.45-.6.56-.12,1,.22,1.52.27a5.48,5.48,0,0,1,1.42.18,6.11,6.11,0,0,0,1.88.27c.66,0,1.23.44,1.89.29.46.5,1.14.11,1.7.44a4,4,0,0,0,1.5.27,17,17,0,0,1,2.76.62l3.37.88c1.28.33,2.55.72,3.82,1.07.88.25,1.79.48,2.65.82s1.67.61,2.51.9c1.31.45,2.6,1,3.88,1.48A47.55,47.55,0,0,1,186.34,12a10.24,10.24,0,0,1,3.06,1.35,29.44,29.44,0,0,1,3,1.61c.83.55,1.77.94,2.64,1.45s2,1.06,2.92,1.7,2.22,1.34,3.24,2.16,2.13,1.48,3.19,2.25c1.48,1.08,2.9,2.24,4.33,3.38a29.8,29.8,0,0,1,2.4,2.1c2,2,4,3.89,5.9,5.93,1.18,1.26,2.25,2.63,3.33,4,.89,1.1,1.68,2.28,2.68,3.3a24.89,24.89,0,0,1,2.34,2.76,26,26,0,0,0,1.77,2c1,1.14,1.92,2.4,3,3.55a46.13,46.13,0,0,1,3.45,4.43c1.22,1.76,2.54,3.43,3.77,5.18,1.57,2.22,3.14,4.44,4.65,6.71.78,1.17,1.53,2.36,2.27,3.56.86,1.43,1.72,2.87,2.52,4.33,1.24,2.23,2.39,4.51,3.51,6.8.93,1.9,1.84,3.82,2.64,5.78q1.56,3.85,2.88,7.8c.62,1.84,1,3.75,1.73,5.54a12,12,0,0,0,.56,2.77,15.4,15.4,0,0,0,.66,2.72c.19.51-.12,1.14.29,1.63-.19.75.34,1.41.25,2.15-.07.49.31.88.27,1.39s-.18,1,.23,1.4c0,0,0,.08,0,.12a16.37,16.37,0,0,0,.29,3.27,27.35,27.35,0,0,0,.27,3.64c.18,1,.1,2,.19,3,.24.4.07.83.12,1.24v1.47a7,7,0,0,0,.13,2v7a6.9,6.9,0,0,0-.13,2V137C260.57,137.41,260.74,137.85,260.5,138.25Z"/><path class="cls-1" d="M.25,141a7.45,7.45,0,0,1,0,1.25c-.14.71.26,1.33.27,2a5.87,5.87,0,0,0,.2,2A9,9,0,0,1,1,148.19c.14,1.19.36,2.37.6,3.53s.6,2.49.9,3.73c.37,1.59.89,3.14,1.33,4.71s1,2.89,1.59,4.33c1,2.48,2,4.93,3,7.4.65,1.64,1.29,3.29,2,4.9.63,1.31,1.2,2.67,1.76,4,.46,1.11,1,2.17,1.54,3.24s1.06,2.06,1.58,3.09a54.21,54.21,0,0,0,3.84,6.27,12.1,12.1,0,0,0,1.63,2,3.48,3.48,0,0,1,1,1.18c.2.53.81.6,1.18,1a13,13,0,0,0,5.8,3.46,11.79,11.79,0,0,0,3.81.76.19.19,0,0,1,.2.25H0V141C.08,140.89.17,140.88.25,141Z"/><path class="cls-1" d="M142.25.25a4.48,4.48,0,0,1,2.94,1.34,7.88,7.88,0,0,1,2.35,4.15,9.15,9.15,0,0,1-2.18,7.8,32.6,32.6,0,0,0-2.86,3.93,14.21,14.21,0,0,0-1,2.83c.28.84.35,1.73,1.33,2.22a11,11,0,0,0,3.61,1.27,16.4,16.4,0,0,0,3.05.46c.54.55,1.38-.07,1.92.5a4.61,4.61,0,0,1,2,.3,11.75,11.75,0,0,1,3.09.95c.31.15.34.34.08.5a10.93,10.93,0,0,1-3.6,1.3,15.63,15.63,0,0,1-4.52.15c-2.81-.31-5.61-.11-8.4-.2a5.6,5.6,0,0,1-2.27-.86c-.27-.13-.49-.39-.79-.51s-.18-.55-.45-.68c-.54-.27-.17-.84-.42-1.21a.75.75,0,0,1,.09-1.09,9.18,9.18,0,0,1,1.27-3.6c.76-1.36,1.6-2.67,2.37-4a35.49,35.49,0,0,0,2.47-5,11.29,11.29,0,0,0,.41-4.08,14,14,0,0,0-1.16-2A11.12,11.12,0,0,0,137.82,2c-.2-.09-.36-.32-.64-.28-.12,0-.19-.11-.18-.26s.09-.18.21-.24a8.39,8.39,0,0,1,2.95-1s.06-.13.09-.2h.5C141.21.33,141.79-.07,142.25.25Z"/><path class="cls-1" d="M.25,133.75v6c-.08.11-.17.12-.25,0v-6C.08,133.64.17,133.63.25,133.75Z"/><path class="cls-1" d="M260.75,126.5c-.23,0-.25-.14-.25-.31V124.5c.08-.11.17-.11.25,0Z"/><path class="cls-1" d="M260.5,135.5v-1.69c0-.17,0-.33.25-.31v2C260.67,135.61,260.58,135.61,260.5,135.5Z"/><path class="cls-1" d="M34.75,201.75h2c.08.06.11.11.08.17s0,.08-.08.08h-2c-.08-.06-.11-.11-.08-.17S34.72,201.75,34.75,201.75Z"/><path class="cls-1" d="M36.75,202v-.25H38.2c.17,0,.32,0,.3.25Z"/><path class="cls-1" d="M142.25.25h-1.2c-.17,0-.32,0-.3-.25h1.5Z"/><path class="cls-1" d="M260.75,124.5h-.25V123c.08-.11.17-.11.25,0Z"/><path class="cls-1" d="M260.5,135.5h.25V137c-.08.11-.17.11-.25,0Z"/><path class="cls-1" d="M34.75,201.75V202h-1.5c0-.23.13-.25.3-.25Z"/><ellipse class="cls-1" cx="260.63" cy="122.38" rx="0.18" ry="0.88"/><ellipse class="cls-1" cx="0.13" cy="133.13" rx="0.18" ry="0.88"/><ellipse class="cls-1" cx="260.63" cy="137.63" rx="0.18" ry="0.88"/><ellipse class="cls-1" cx="0.13" cy="140.38" rx="0.18" ry="0.88"/><path class="cls-1" d="M47.73,131.57a9.36,9.36,0,0,1,.32-3.22,15.35,15.35,0,0,1,.94-4.22c-.05-1.61.76-3,1-4.57a35.74,35.74,0,0,1,1-3.46c.39-1.29.81-2.58,1.24-3.86s.8-2.5,1.25-3.73c.7-2,1.44-3.91,2.14-5.86s1.45-3.82,2.14-5.74c.53-1.47,1.18-2.93,1.78-4.39.76-1.81,1.5-3.63,2.27-5.43.42-1,.85-2,1.32-3a25.39,25.39,0,0,0,1.33-3.07c.35-1,1-1.89,1.31-3A16.94,16.94,0,0,1,67,75.73c1.2-2.59,2.37-5.2,3.77-7.69.81-1.45,1.46-3,2.41-4.38a21.93,21.93,0,0,0,1.22-2.24c.77-1.45,1.67-2.81,2.51-4.21.62-1,1.34-2,2-3s1.71-2,2.4-3.12c.09-.14.25-.23.35-.36.32-.44,1-.47,1.21-1a4.17,4.17,0,0,1,1-1.21,8.24,8.24,0,0,1,4.32-2.24c1.12-.27,2.26-.41,3.4-.57s2-.08,3-.21c.68-.08,1.25.31,1.9.28a7.31,7.31,0,0,1,1.87,0c1.09.21,2.2.3,3.29.51s2.49.37,3.69.73,2.32.64,3.48.93c1.55.39,3.06.87,4.59,1.32s3,1,4.5,1.5,2.85,1.16,4.28,1.74L125,53.63c.89.36,1.75.81,2.62,1.2A16.41,16.41,0,0,1,131,56.62a6.56,6.56,0,0,0,1.24.63c1.16.56,2.21,1.3,3.32,1.94,1.33.77,2.52,1.74,3.79,2.59a3,3,0,0,1,1.28,1.71c.26.89.55,1.77.82,2.65a2.86,2.86,0,0,1-.54,2.25,2.17,2.17,0,0,1-1.87.82,3.91,3.91,0,0,1-2.52-.21c-1.38.09-2.61-.58-3.94-.76-.4-.06-.78-.34-1.18-.44-3.75-1-7.35-2.39-11-3.54-1.07-.34-2.13-.71-3.2-1s-2.15-.67-3.23-.93c-.8-.19-1.57-.48-2.38-.64-.55-.12-1.2,0-1.7-.4-1.2,0-2.32-.64-3.54-.5a5,5,0,0,0-2.27-.25c-.56,0-1.06-.38-1.65-.26-.75.16-1.51-.16-2.29.21-.63.29-1.46-.17-2.12.3a6.75,6.75,0,0,0-3,.89,10.14,10.14,0,0,0-4,3.51,28.06,28.06,0,0,0-1.47,3c-.09.17-.17.52.34.6a14.67,14.67,0,0,0,2.79.48c.53,0,1,.33,1.52.27s1.07-.2,1.53.23c0,0,.08,0,.12,0,1.19-.19,2.34.41,3.52.24.6-.09,1.06.3,1.65.29s1.15-.29,1.65.21c0,.05.16,0,.24,0,1.11-.19,2.17.37,3.27.24.5,0,.88.36,1.4.28a2,2,0,0,1,1.41.2c.27.17.74,0,1.11,0s.6.36,1,.28a2.08,2.08,0,0,1,1.41.21c.37.2.88-.15,1.3.18s.9.06,1.38.28a6.05,6.05,0,0,0,1.75.28c.95.1,1.82.48,2.76.61.61.09,1.19.34,1.81.45s1.09.38,1.67.5a12.64,12.64,0,0,1,2.28.81,18.42,18.42,0,0,1,3.73,1.89,23.36,23.36,0,0,1,2.51,2.36c.33.31.36.85.51,1.27a5,5,0,0,1-.43,3.83,1.27,1.27,0,0,1-1.32.82,8.73,8.73,0,0,1-2.81-.44,6.72,6.72,0,0,0-1.62-.3,7,7,0,0,1-1.82-.46,2.13,2.13,0,0,0-1,0c-.37,0-.55-.31-.9-.28-.73.07-1.4-.42-2.15-.24-.54-.55-1.37,0-1.92-.5-.9.19-1.75-.39-2.64-.24-.6.11-1.06-.31-1.65-.28s-1.15.23-1.65-.22c0-.05-.16,0-.24,0-1.77.11-3.5-.36-5.27-.27-1.93.1-3.84-.32-5.77-.27-1.07,0-2.08.36-3.15.3a14.13,14.13,0,0,0-3.12,0,28.79,28.79,0,0,0-2.88.26c-1,.3-2-.1-2.94.45a9.79,9.79,0,0,0-2.64.27,7.17,7.17,0,0,1-1.9.23c-.66-.13-1.23.4-1.89.25-.81.46-1.74.57-2.56,1.09a17.94,17.94,0,0,0-3.11,2.43,27,27,0,0,0-3.1,4,46.6,46.6,0,0,0-4,7.23c-1.09,2.42-2.16,4.85-3.07,7.35-.52,1.4-1.1,2.79-1.7,4.17s-1.16,2.94-1.72,4.41c-.4,1-.83,2.07-1.2,3.13-.71,2-1.56,3.94-2.42,5.86-.78,1.72-1.47,3.49-2.42,5.13-1.14,1.95-2.19,3.95-3.51,5.79A5.2,5.2,0,0,1,50.31,136c-1.42.24-2-.09-2.34-1.6A15.29,15.29,0,0,1,47.73,131.57Z"/><path class="cls-1" d="M143.94,51c1,0,2,0,3,0a23.05,23.05,0,0,0,3.52.24,3.14,3.14,0,0,0,2,.23c.59,0,1.05.35,1.65.3s1.07-.25,1.53.21c.09.08.33,0,.49,0a15.38,15.38,0,0,1,3.89.3,22.64,22.64,0,0,1,2.77.24c1.51.37,3,0,4.52.23a42.85,42.85,0,0,0,6.4.22c2.13,0,4.27-.14,6.37.06,1.47.15,2.93.12,4.4.21a9.79,9.79,0,0,0,1.65.25,2.36,2.36,0,0,1,1.64.24,13.08,13.08,0,0,1,2.65.25.92.92,0,0,1,.37,0c1.18.45,2.47.42,3.65.85s2,.92,3,1.39c.51.24.84.72,1.33,1a1.41,1.41,0,0,1,.58.84c0,.3-.35.64-.59.95a21.44,21.44,0,0,0-2.59,4.05,12.88,12.88,0,0,0-1.48,4.63c-.55.61-.08,1.4-.4,2.09a6,6,0,0,0-.1,2.21,5.14,5.14,0,0,0,.23,1.9c.18.56-.19,1.23.27,1.76-.11,1.42.54,2.7.79,4.06A25.33,25.33,0,0,0,196.65,83c.72,2.24,1.67,4.39,2.53,6.57.79,2,1.6,3.92,2.42,5.87.43,1,1,2,1.3,3.09s.75,2,1.15,3c.52,1.32,1.1,2.63,1.6,4,1,2.56,1.91,5.13,2.72,7.75.47,1.51,1,3,1.38,4.55s.85,3.24,1.29,4.85.66,3.19,1.16,4.75c.26.8.24,1.71.55,2.53a.85.85,0,0,1-.28.87c-.69.65-1,1.72-2,2-.47.64-1.29.48-1.89.84a7.2,7.2,0,0,1-2.41-1.14,18.86,18.86,0,0,1-3.67-5.23,35,35,0,0,1-1.74-3.53c-.74-1.9-1.63-3.73-2.33-5.66-.47-1.33-1.07-2.64-1.59-4s-1.07-2.48-1.49-3.76c-.55-1.68-1.33-3.28-1.89-5-.4-1.2-1-2.34-1.48-3.51-.63-1.48-1.22-3-1.88-4.46-.79-1.76-1.62-3.5-2.47-5.23a68.53,68.53,0,0,0-4.67-8,14.23,14.23,0,0,0-2.14-2.74c-.4-.37-.58-.87-1-1.24a30.11,30.11,0,0,0-3-2.59l-2.46-1.92a46.17,46.17,0,0,0-3.91-2.64A81.26,81.26,0,0,0,162,68.63,38.25,38.25,0,0,0,158.14,67a26.56,26.56,0,0,1-2.73-1.23c-1-.49-2.1-1-3.16-1.42s-2.1-1-3.17-1.41a65.88,65.88,0,0,1-6-3A43.57,43.57,0,0,1,139,57.48a7.83,7.83,0,0,1-2.68-3.84c-.14-.37.45-.6.23-1,.42-.29.67-.72,1.24-.92a11.13,11.13,0,0,1,4.45-.72C142.77,51,143.36,51,143.94,51Z"/><path class="cls-1" d="M121.7,27.75c-.76,0-1.26,0-1.76,0a9.23,9.23,0,0,1-3-.5c-.43-.13-.55-.43-.27-.74a.72.72,0,0,1,.38-.27c.78-.22,1.56-.47,2.32-.75a8.9,8.9,0,0,0,2.31-.74,18.78,18.78,0,0,0,4.48-1.26,5.61,5.61,0,0,0,3.68-3.13,1.92,1.92,0,0,0,.2-.79c0-.71,0-1.42,0-2.13a8.15,8.15,0,0,0-.59-2.38c-.36-1.05-.86-2.06-1.32-3.08-.07-.16-.16-.3,0-.42.42-.34.54-.88.95-1.24a10.82,10.82,0,0,0,2-2.28,2.88,2.88,0,0,0,.64-1.22,2.25,2.25,0,0,0-.52-1.52,7.54,7.54,0,0,0-2.81-2c-1-.49-1.9-1.21-2.9-1.73-.11-.06-.4-.18,0-.36a7.54,7.54,0,0,1,4.19-.69,9.36,9.36,0,0,1,2.22.66,7.08,7.08,0,0,1,1.93,1.32,5.88,5.88,0,0,1,1.71,5.85,7,7,0,0,1-1.72,3.17c-.44.49-.44.54-.05,1.12a11.67,11.67,0,0,1,1.46,3.52,9.19,9.19,0,0,1,.29,1.89,7.1,7.1,0,0,1-.9,3.64,6,6,0,0,1-2.53,2.81c-.45.73-1.28,1-1.93,1.38A12.74,12.74,0,0,1,127.38,27c-.82.26-1.7.36-2.53.56A27.12,27.12,0,0,1,121.7,27.75Z"/></g></g></svg>