<svg xmlns="http://www.w3.org/2000/svg" viewBox="0 0 687.62 825.19"><defs><style>.cls-1{fill:#fefefe;}</style></defs><g id="Layer_2" data-name="Layer 2"><g id="Layer_1-2" data-name="Layer 1"><path d="M466.64,280.4c-3.4-5.19-3.59-5.18-7.9-.76-28.65,29.44-40.6,65.45-41.56,103.46.1,13.81,1.1,25.22,3.6,36.46a139.18,139.18,0,0,0,20.41,48.31c1.88,2.79,3.28,3.22,5.55.55,3.57-4.17,7.57-8,11-12.28,19.81-25.25,29.71-54.31,31.61-86.05C491.26,337.91,484.42,307.7,466.64,280.4Zm0,0c-3.4-5.19-3.59-5.18-7.9-.76-28.65,29.44-40.6,65.45-41.56,103.46.1,13.81,1.1,25.22,3.6,36.46a139.18,139.18,0,0,0,20.41,48.31c1.88,2.79,3.28,3.22,5.55.55,3.57-4.17,7.57-8,11-12.28,19.81-25.25,29.71-54.31,31.61-86.05C491.26,337.91,484.42,307.7,466.64,280.4Zm0,0c-3.4-5.19-3.59-5.18-7.9-.76-28.65,29.44-40.6,65.45-41.56,103.46.1,13.81,1.1,25.22,3.6,36.46a139.18,139.18,0,0,0,20.41,48.31c1.88,2.79,3.28,3.22,5.55.55,3.57-4.17,7.57-8,11-12.28,19.81-25.25,29.71-54.31,31.61-86.05C491.26,337.91,484.42,307.7,466.64,280.4Zm0,0c-3.4-5.19-3.59-5.18-7.9-.76-28.65,29.44-40.6,65.45-41.56,103.46.1,13.81,1.1,25.22,3.6,36.46a139.18,139.18,0,0,0,20.41,48.31c1.88,2.79,3.28,3.22,5.55.55,3.57-4.17,7.57-8,11-12.28,19.81-25.25,29.71-54.31,31.61-86.05C491.26,337.91,484.42,307.7,466.64,280.4Zm0,0c-3.4-5.19-3.59-5.18-7.9-.76-28.65,29.44-40.6,65.45-41.56,103.46.1,13.81,1.1,25.22,3.6,36.46a139.18,139.18,0,0,0,20.41,48.31c1.88,2.79,3.28,3.22,5.55.55,3.57-4.17,7.57-8,11-12.28,19.81-25.25,29.71-54.31,31.61-86.05C491.26,337.91,484.42,307.7,466.64,280.4Zm0,0c-3.4-5.19-3.59-5.18-7.9-.76-28.65,29.44-40.6,65.45-41.56,103.46.1,13.81,1.1,25.22,3.6,36.46a139.18,139.18,0,0,0,20.41,48.31c1.88,2.79,3.28,3.22,5.55.55,3.57-4.17,7.57-8,11-12.28,19.81-25.25,29.71-54.31,31.61-86.05C491.26,337.91,484.42,307.7,466.64,280.4Zm0,0c-3.4-5.19-3.59-5.18-7.9-.76-28.65,29.44-40.6,65.45-41.56,103.46.1,13.81,1.1,25.22,3.6,36.46a139.18,139.18,0,0,0,20.41,48.31c1.88,2.79,3.28,3.22,5.55.55,3.57-4.17,7.57-8,11-12.28,19.81-25.25,29.71-54.31,31.61-86.05C491.26,337.91,484.42,307.7,466.64,280.4Zm0,0c-3.4-5.19-3.59-5.18-7.9-.76-28.65,29.44-40.6,65.45-41.56,103.46.1,13.81,1.1,25.22,3.6,36.46a139.18,139.18,0,0,0,20.41,48.31c1.88,2.79,3.28,3.22,5.55.55,3.57-4.17,7.57-8,11-12.28,19.81-25.25,29.71-54.31,31.61-86.05C491.26,337.91,484.42,307.7,466.64,280.4Zm0,0c-3.4-5.19-3.59-5.18-7.9-.76-28.65,29.44-40.6,65.45-41.56,103.46.1,13.81,1.1,25.22,3.6,36.46a139.18,139.18,0,0,0,20.41,48.31c1.88,2.79,3.28,3.22,5.55.55,3.57-4.17,7.57-8,11-12.28,19.81-25.25,29.71-54.31,31.61-86.05C491.26,337.91,484.42,307.7,466.64,280.4Zm0,0c-3.4-5.19-3.59-5.18-7.9-.76-28.65,29.44-40.6,65.45-41.56,103.46.1,13.81,1.1,25.22,3.6,36.46a139.18,139.18,0,0,0,20.41,48.31c1.88,2.79,3.28,3.22,5.55.55,3.57-4.17,7.57-8,11-12.28,19.81-25.25,29.71-54.31,31.61-86.05C491.26,337.91,484.42,307.7,466.64,280.4Zm0,0c-3.4-5.19-3.59-5.18-7.9-.76-28.65,29.44-40.6,65.45-41.56,103.46.1,13.81,1.1,25.22,3.6,36.46a139.18,139.18,0,0,0,20.41,48.31c1.88,2.79,3.28,3.22,5.55.55,3.57-4.17,7.57-8,11-12.28,19.81-25.25,29.71-54.31,31.61-86.05C491.26,337.91,484.42,307.7,466.64,280.4Zm0,0c-3.4-5.19-3.59-5.18-7.9-.76-28.65,29.44-40.6,65.45-41.56,103.46.1,13.81,1.1,25.22,3.6,36.46a139.18,139.18,0,0,0,20.41,48.31c1.88,2.79,3.28,3.22,5.55.55,3.57-4.17,7.57-8,11-12.28,19.81-25.25,29.71-54.31,31.61-86.05C491.26,337.91,484.42,307.7,466.64,280.4Zm0,0c-3.4-5.19-3.59-5.18-7.9-.76-28.65,29.44-40.6,65.45-41.56,103.46.1,13.81,1.1,25.22,3.6,36.46a139.18,139.18,0,0,0,20.41,48.31c1.88,2.79,3.28,3.22,5.55.55,3.57-4.17,7.57-8,11-12.28,19.81-25.25,29.71-54.31,31.61-86.05C491.26,337.91,484.42,307.7,466.64,280.4Zm0,0c-3.4-5.19-3.59-5.18-7.9-.76-28.65,29.44-40.6,65.45-41.56,103.46.1,13.81,1.1,25.22,3.6,36.46a139.18,139.18,0,0,0,20.41,48.31c1.88,2.79,3.28,3.22,5.55.55,3.57-4.17,7.57-8,11-12.28,19.81-25.25,29.71-54.31,31.61-86.05C491.26,337.91,484.42,307.7,466.64,280.4Zm217-134.55c-6.15,1.36-12.31,2.76-18.53,3.79A1103.86,1103.86,0,0,1,468,164.28a1002.69,1002.69,0,0,1-117.29-8.34c-46.21-6.12-91.61-15.73-136-30.16-68.3-22.22-131-54.6-185.13-102.44C21.19,15.89,12.82,8.33,3.51,0c-1,33.05-2.45,64.73-3,96.42-.94,56.38-.79,112.76,1.82,169.1,2.88,62,8,123.71,17.74,185,7.65,48.28,17.92,95.93,33.26,142.4s35.08,91,64.3,130.77c34.59,47,78.61,80.68,136.21,94.5,28.87,6.93,58.09,9.52,87.53,4,32.72-6.18,61.12-21.68,87.16-41.81,41.6-32.14,74-72.45,102.27-116.29,41.23-64,72.08-132.86,96.57-204.71a1161.82,1161.82,0,0,0,46.14-183.75A1168.65,1168.65,0,0,0,687.6,149.33C687.81,145.5,686.81,145.16,683.68,145.85ZM274,556.56a6.29,6.29,0,0,1-2.75,4.92c-5.93,4.6-12.58,4.49-19.48,3.29-27.92-4.88-52.44-17.43-75.21-33.73-13.15-9.43-25.27-20-35.23-32.93-.68-.89-1.2-2.08-3.21-1.62C155.48,556.29,190.68,598.35,253,614c1.6.4,3.23.74,4.82,1.22,10.79,3.29,12.55,5.48,12.18,16.64q-1.45,45.63-1.59,91.27c0,15.13.34,30.27.67,45.4.1,4.27-.48,8.25-2.81,11.9-3.5,5.53-9.19,7.71-15.42,5.83-39.93-12-72.18-35.37-98.64-67.13-30.37-36.48-50.46-78.56-66.13-123-17.65-50-28.76-101.52-37-153.77-7.14-45.35-11.35-91-14.78-136.78-.34-4.46.13-6.06,5.45-5.74,56.18,3.41,107.4,21.44,154.63,51.53,1.52,1,3,2,5.16,3.36-1.58-7-4.35-12.81-7.23-18.5-24.18-47.65-62.9-78.43-112.44-96.52A214.13,214.13,0,0,0,36.6,228.62c-4.59-.65-5.84-2.51-5.91-6.81q-.89-45.42-.52-90.83c.07-8.79-.39-17.62,1.93-26.28,4.41-16.53,15.35-22.38,31.33-16.34,9.38,3.55,17.29,9.83,25.89,14.81C145.56,135.65,205.9,157.32,269,171.82c7.43,1.7,15,2.71,22.18,5.62,18.37,7.47,28.13,24.48,24.54,43.92Q302,295.63,292.19,370.5c-5.41,41.21-10,82.51-13.41,123.93Q276.22,525.48,274,556.56ZM648.26,243.79a1167.58,1167.58,0,0,1-43.73,189C580.17,508,548.87,580.11,506.1,646.88c-23.23,36.27-49.62,70-82.25,98.4-24.05,20.92-50.36,38-81.73,45.94A115.39,115.39,0,0,1,312.53,795a21.57,21.57,0,0,1-21.65-20.91c-1.12-32.73-1.28-65.48-.2-98.23.5-15.45,1-30.9,1.1-46.36,0-7.86,3.5-12.81,10.5-15.78,44.64-19,89.7-23,135.45-4a15.15,15.15,0,0,0,2.37.41c-16.06-18.78-35.57-30.72-57.54-38.84-24.5-9.06-49.92-12.09-75.92-11.1-8.7.33-11.09-2-10.58-10.85.58-9.79,1.38-19.56,2.17-29.33q4.36-54.18,10.58-108.18c4.14-35.49,8.87-70.9,14.43-106.19,3.92-24.93,8.43-49.77,12.58-74.67,3.71-22.19,17.16-35.51,39.49-39.45,11-1.94,21.9-.36,32.81.39a1118.93,1118.93,0,0,0,136.55.94c23.57-1.26,47.09-3,70.54-5.85,12.94-1.56,23.82,4.82,29.13,17.67C649.55,217.25,650.24,230.34,648.26,243.79ZM458.74,279.64c-28.65,29.44-40.6,65.45-41.56,103.46.1,13.81,1.1,25.22,3.6,36.46a139.18,139.18,0,0,0,20.41,48.31c1.88,2.79,3.28,3.22,5.55.55,3.57-4.17,7.57-8,11-12.28,19.81-25.25,29.71-54.31,31.61-86.05,1.95-32.18-4.89-62.39-22.67-89.69C463.24,275.21,463.05,275.22,458.74,279.64Zm7.9.76c-3.4-5.19-3.59-5.18-7.9-.76-28.65,29.44-40.6,65.45-41.56,103.46.1,13.81,1.1,25.22,3.6,36.46a139.18,139.18,0,0,0,20.41,48.31c1.88,2.79,3.28,3.22,5.55.55,3.57-4.17,7.57-8,11-12.28,19.81-25.25,29.71-54.31,31.61-86.05C491.26,337.91,484.42,307.7,466.64,280.4Zm0,0c-3.4-5.19-3.59-5.18-7.9-.76-28.65,29.44-40.6,65.45-41.56,103.46.1,13.81,1.1,25.22,3.6,36.46a139.18,139.18,0,0,0,20.41,48.31c1.88,2.79,3.28,3.22,5.55.55,3.57-4.17,7.57-8,11-12.28,19.81-25.25,29.71-54.31,31.61-86.05C491.26,337.91,484.42,307.7,466.64,280.4Zm0,0c-3.4-5.19-3.59-5.18-7.9-.76-28.65,29.44-40.6,65.45-41.56,103.46.1,13.81,1.1,25.22,3.6,36.46a139.18,139.18,0,0,0,20.41,48.31c1.88,2.79,3.28,3.22,5.55.55,3.57-4.17,7.57-8,11-12.28,19.81-25.25,29.71-54.31,31.61-86.05C491.26,337.91,484.42,307.7,466.64,280.4Zm0,0c-3.4-5.19-3.59-5.18-7.9-.76-28.65,29.44-40.6,65.45-41.56,103.46.1,13.81,1.1,25.22,3.6,36.46a139.18,139.18,0,0,0,20.41,48.31c1.88,2.79,3.28,3.22,5.55.55,3.57-4.17,7.57-8,11-12.28,19.81-25.25,29.71-54.31,31.61-86.05C491.26,337.91,484.42,307.7,466.64,280.4Zm0,0c-3.4-5.19-3.59-5.18-7.9-.76-28.65,29.44-40.6,65.45-41.56,103.46.1,13.81,1.1,25.22,3.6,36.46a139.18,139.18,0,0,0,20.41,48.31c1.88,2.79,3.28,3.22,5.55.55,3.57-4.17,7.57-8,11-12.28,19.81-25.25,29.71-54.31,31.61-86.05C491.26,337.91,484.42,307.7,466.64,280.4Zm0,0c-3.4-5.19-3.59-5.18-7.9-.76-28.65,29.44-40.6,65.45-41.56,103.46.1,13.81,1.1,25.22,3.6,36.46a139.18,139.18,0,0,0,20.41,48.31c1.88,2.79,3.28,3.22,5.55.55,3.57-4.17,7.57-8,11-12.28,19.81-25.25,29.71-54.31,31.61-86.05C491.26,337.91,484.42,307.7,466.64,280.4Zm0,0c-3.4-5.19-3.59-5.18-7.9-.76-28.65,29.44-40.6,65.45-41.56,103.46.1,13.81,1.1,25.22,3.6,36.46a139.18,139.18,0,0,0,20.41,48.31c1.88,2.79,3.28,3.22,5.55.55,3.57-4.17,7.57-8,11-12.28,19.81-25.25,29.71-54.31,31.61-86.05C491.26,337.91,484.42,307.7,466.64,280.4Zm0,0c-3.4-5.19-3.59-5.18-7.9-.76-28.65,29.44-40.6,65.45-41.56,103.46.1,13.81,1.1,25.22,3.6,36.46a139.18,139.18,0,0,0,20.41,48.31c1.88,2.79,3.28,3.22,5.55.55,3.57-4.17,7.57-8,11-12.28,19.81-25.25,29.71-54.31,31.61-86.05C491.26,337.91,484.42,307.7,466.64,280.4Zm0,0c-3.4-5.19-3.59-5.18-7.9-.76-28.65,29.44-40.6,65.45-41.56,103.46.1,13.81,1.1,25.22,3.6,36.46a139.18,139.18,0,0,0,20.41,48.31c1.88,2.79,3.28,3.22,5.55.55,3.57-4.17,7.57-8,11-12.28,19.81-25.25,29.71-54.31,31.61-86.05C491.26,337.91,484.42,307.7,466.64,280.4Zm0,0c-3.4-5.19-3.59-5.18-7.9-.76-28.65,29.44-40.6,65.45-41.56,103.46.1,13.81,1.1,25.22,3.6,36.46a139.18,139.18,0,0,0,20.41,48.31c1.88,2.79,3.28,3.22,5.55.55,3.57-4.17,7.57-8,11-12.28,19.81-25.25,29.71-54.31,31.61-86.05C491.26,337.91,484.42,307.7,466.64,280.4Zm0,0c-3.4-5.19-3.59-5.18-7.9-.76-28.65,29.44-40.6,65.45-41.56,103.46.1,13.81,1.1,25.22,3.6,36.46a139.18,139.18,0,0,0,20.41,48.31c1.88,2.79,3.28,3.22,5.55.55,3.57-4.17,7.57-8,11-12.28,19.81-25.25,29.71-54.31,31.61-86.05C491.26,337.91,484.42,307.7,466.64,280.4Zm0,0c-3.4-5.19-3.59-5.18-7.9-.76-28.65,29.44-40.6,65.45-41.56,103.46.1,13.81,1.1,25.22,3.6,36.46a139.18,139.18,0,0,0,20.41,48.31c1.88,2.79,3.28,3.22,5.55.55,3.57-4.17,7.57-8,11-12.28,19.81-25.25,29.71-54.31,31.61-86.05C491.26,337.91,484.42,307.7,466.64,280.4Z"/><path class="cls-1" d="M489.31,370.09c-1.9,31.74-11.8,60.8-31.61,86.05-3.39,4.3-7.39,8.11-11,12.28-2.27,2.67-3.67,2.24-5.55-.55a139.18,139.18,0,0,1-20.41-48.31c-2.5-11.24-3.5-22.65-3.6-36.46,1-38,12.91-74,41.56-103.46,4.31-4.42,4.5-4.43,7.9.76C484.42,307.7,491.26,337.91,489.31,370.09Z"/><path d="M489.31,370.09c-1.9,31.74-11.8,60.8-31.61,86.05-3.39,4.3-7.39,8.11-11,12.28-2.27,2.67-3.67,2.24-5.55-.55a139.18,139.18,0,0,1-20.41-48.31c-2.5-11.24-3.5-22.65-3.6-36.46,1-38,12.91-74,41.56-103.46,4.31-4.42,4.5-4.43,7.9.76C484.42,307.7,491.26,337.91,489.31,370.09Z"/></g></g></svg>